<svg width="40" height="40" viewBox="0 0 40 40" fill="none" xmlns="http://www.w3.org/2000/svg">
<mask id="mask0_1998_1031" style="mask-type:luminance" maskUnits="userSpaceOnUse" x="0" y="0" width="40" height="40">
<path d="M40 0H0V40H40V0Z" fill="white"/>
</mask>
<g mask="url(#mask0_1998_1031)">
<path d="M32.0501 26.9998H7.95008C7.78315 27.0043 7.61701 26.9753 7.46148 26.9144C7.30596 26.8536 7.1642 26.7622 7.04457 26.6457C6.92494 26.5292 6.82988 26.3899 6.76498 26.236C6.70009 26.0822 6.66669 25.9168 6.66675 25.7498V9.81651C6.66892 9.42989 6.7475 9.0475 6.89798 8.69135C7.04845 8.33521 7.26785 8.01232 7.54356 7.74126C7.81926 7.4702 8.14583 7.25632 8.50449 7.11192C8.86314 6.96752 9.24681 6.89545 9.63341 6.89985H20.0001C20.3316 6.89985 20.6495 7.03154 20.884 7.26596C21.1184 7.50038 21.2501 7.81833 21.2501 8.14985C21.2501 8.48137 21.1184 8.79931 20.884 9.03373C20.6495 9.26815 20.3316 9.39985 20.0001 9.39985H9.63341C9.52132 9.39976 9.41355 9.44313 9.33275 9.52082C9.25194 9.59852 9.20439 9.7045 9.20008 9.81651V24.4998H30.8667V16.9498C30.8667 16.6183 30.9984 16.3004 31.2329 16.066C31.4673 15.8315 31.7852 15.6998 32.1167 15.6998C32.4483 15.6998 32.7662 15.8315 33.0006 16.066C33.235 16.3004 33.3667 16.6183 33.3667 16.9498V25.7498C33.367 25.9198 33.3326 26.0879 33.2656 26.2441C33.1987 26.4003 33.1006 26.5412 32.9774 26.6582C32.8542 26.7751 32.7084 26.8658 32.5489 26.9245C32.3895 26.9833 32.2198 27.0089 32.0501 26.9998Z" fill="white"/>
<path d="M34.5834 33.1H5.41675C5.08657 33.0957 4.77113 32.9626 4.53764 32.7291C4.30415 32.4956 4.17106 32.1802 4.16675 31.85V25.75C4.17106 25.4198 4.30415 25.1044 4.53764 24.8709C4.77113 24.6374 5.08657 24.5043 5.41675 24.5H34.5834C34.9136 24.5043 35.229 24.6374 35.4625 24.8709C35.696 25.1044 35.8291 25.4198 35.8334 25.75V31.85C35.8291 32.1802 35.696 32.4956 35.4625 32.7291C35.229 32.9626 34.9136 33.0957 34.5834 33.1ZM6.66675 30.6H33.3334V27H6.66675V30.6Z" fill="white"/>
<path d="M20.1336 21.4664C19.9674 21.4656 19.8031 21.4316 19.6502 21.3664C19.4222 21.2732 19.2273 21.1139 19.0907 20.9089C18.954 20.704 18.8819 20.4628 18.8836 20.2164V13.8664C18.8836 13.5349 19.0153 13.217 19.2497 12.9826C19.4841 12.7481 19.8021 12.6164 20.1336 12.6164C20.4651 12.6164 20.783 12.7481 21.0175 12.9826C21.2519 13.217 21.3836 13.5349 21.3836 13.8664V17.1998L28.0502 10.5331C28.1647 10.4103 28.3027 10.3118 28.456 10.2435C28.6093 10.1751 28.7749 10.1384 28.9427 10.1354C29.1105 10.1325 29.2773 10.1634 29.4329 10.2262C29.5885 10.2891 29.7299 10.3827 29.8486 10.5014C29.9673 10.6201 30.0609 10.7615 30.1238 10.9171C30.1866 11.0728 30.2175 11.2395 30.2146 11.4073C30.2116 11.5751 30.1749 11.7407 30.1065 11.894C30.0382 12.0473 29.9397 12.1853 29.8169 12.2998L21.0336 21.0831C20.917 21.2042 20.7773 21.3006 20.6226 21.3665C20.468 21.4323 20.3017 21.4663 20.1336 21.4664Z" fill="white"/>
<path d="M26.4835 21.4668H20.1335C19.802 21.4668 19.4841 21.3351 19.2497 21.1007C19.0152 20.8663 18.8835 20.5483 18.8835 20.2168C18.8835 19.8853 19.0152 19.5673 19.2497 19.3329C19.4841 19.0985 19.802 18.9668 20.1335 18.9668H26.4835C26.8151 18.9668 27.133 19.0985 27.3674 19.3329C27.6018 19.5673 27.7335 19.8853 27.7335 20.2168C27.7335 20.5483 27.6018 20.8663 27.3674 21.1007C27.133 21.3351 26.8151 21.4668 26.4835 21.4668Z" fill="white"/>
</g>
</svg>
