<svg width="25" height="27" viewBox="0 0 25 27" fill="none" xmlns="http://www.w3.org/2000/svg">
<path d="M8.7719 19.8838H4.43654C2.82983 19.8838 2.02648 19.8838 1.85745 19.7591C1.66756 19.6189 1.62116 19.5361 1.60059 19.3011C1.58229 19.0918 2.07466 18.2861 3.05943 16.6748C4.07618 15.011 4.93952 12.5886 4.93952 9.15901C4.93952 7.26275 5.74661 5.44416 7.18324 4.1033C8.61987 2.76244 10.5684 2.00916 12.6001 2.00916C14.6318 2.00916 16.5802 2.76244 18.0169 4.1033C19.4536 5.44416 20.2606 7.26275 20.2606 9.15901C20.2606 12.5886 21.124 15.011 22.1408 16.6748C23.1254 18.2861 23.6179 19.0918 23.5996 19.3011C23.5791 19.5361 23.5326 19.6189 23.3427 19.7591C23.1737 19.8838 22.3703 19.8838 20.7637 19.8838H16.4303M8.7719 19.8838L8.7698 21.1606C8.7698 23.276 10.4847 24.9908 12.6001 24.9908C14.7155 24.9908 16.4303 23.276 16.4303 21.1606V19.8838M8.7719 19.8838H16.4303" stroke="#EAEAEA" stroke-width="2.2" stroke-linecap="round" stroke-linejoin="round"/>
</svg>
