<svg width="21" height="19" viewBox="0 0 21 19" fill="none" xmlns="http://www.w3.org/2000/svg">
<path d="M10.5 12.0482C9.93588 12.0483 9.38234 11.8974 8.89857 11.6116L1 6.95178V6.0608C1.00947 5.61566 1.19571 5.19191 1.51877 4.88043C1.84183 4.56895 2.27598 4.39456 2.7281 4.39465H18.2719C18.7302 4.39465 19.1698 4.57395 19.4939 4.89309C19.8179 5.21224 20 5.64509 20 6.09644V6.98742L12.1014 11.6473C11.6141 11.9206 11.0607 12.0591 10.5 12.0482Z" stroke="white" stroke-width="1.5" stroke-miterlimit="10"/>
<path d="M10.5 11.2018V12.9036" stroke="white" stroke-width="1.5" stroke-miterlimit="10" stroke-linecap="square"/>
<path d="M13.9562 4.39465H7.04382L7.91239 1H13.0876L13.9562 4.39465Z" stroke="white" stroke-width="1.5" stroke-miterlimit="10" stroke-linecap="square"/>
<path d="M18.2719 4.39465H2.7281C1.77369 4.39465 1 5.15657 1 6.09644V16.2982C1 17.2381 1.77369 18 2.7281 18H18.2719C19.2263 18 20 17.2381 20 16.2982V6.09644C20 5.15657 19.2263 4.39465 18.2719 4.39465Z" stroke="white" stroke-width="1.5" stroke-miterlimit="10"/>
</svg>
