<svg width="39" height="34" viewBox="0 0 39 34" fill="none" xmlns="http://www.w3.org/2000/svg">
<path fillRule="evenodd" clipRule="evenodd" d="M19.4286 26.7143C15.4056 26.7143 12.1429 23.4515 12.1429 19.4286C12.1429 15.4056 15.4056 12.1429 19.4286 12.1429C23.4515 12.1429 26.7143 15.4056 26.7143 19.4286C26.7143 23.4515 23.4515 26.7143 19.4286 26.7143ZM19.4286 9.71429C14.0639 9.71429 9.71429 14.0639 9.71429 19.4286C9.71429 24.7933 14.0639 29.1429 19.4286 29.1429C24.7933 29.1429 29.1429 24.7933 29.1429 19.4286C29.1429 14.0639 24.7933 9.71429 19.4286 9.71429ZM36.4286 29.1429C36.4286 30.4834 35.3406 31.5714 34 31.5714H4.85714C3.51657 31.5714 2.42857 30.4834 2.42857 29.1429V9.71429C2.42857 8.37371 3.51657 7.28571 4.85714 7.28571H9.71429L10.9286 4.85714C11.7871 3.44493 12.0166 2.42857 13.3571 2.42857H25.5C26.8406 2.42857 27.0701 3.44493 27.9286 4.85714L29.1429 7.28571H34C35.3406 7.28571 36.4286 8.37371 36.4286 9.71429V29.1429ZM34 4.85714H30.3571L29.1429 2.42857C28.4276 1.01636 28.0549 0 26.7143 0H12.1429C10.8023 0 10.3579 1.15843 9.71429 2.42857L8.5 4.85714H4.85714C2.17479 4.85714 0 7.03193 0 9.71429V29.1429C0 31.8252 2.17479 34 4.85714 34H34C36.6824 34 38.8571 31.8252 38.8571 29.1429V9.71429C38.8571 7.03193 36.6824 4.85714 34 4.85714Z" fill="white"/>
</svg>
