<svg width="63" height="58" viewBox="0 0 63 58" fill="none" xmlns="http://www.w3.org/2000/svg">
<path d="M44.9207 17.782C44.6822 17.9926 44.4878 18.2485 44.3488 18.5347C44.2098 18.821 44.1289 19.132 44.1108 19.4497C44.0928 19.7675 44.1379 20.0856 44.2436 20.3858C44.3493 20.686 44.5135 20.9622 44.7266 21.1985C48.6091 25.508 48.9973 39.7954 46.7067 49.2297C46.5542 49.8577 46.6564 50.5206 46.991 51.0734C47.3257 51.6263 47.8655 52.0243 48.4926 52.1804H49.075C49.6159 52.181 50.1418 52.0022 50.5704 51.672C50.9989 51.3418 51.3059 50.8789 51.4433 50.3556C53.7727 40.7272 53.9668 24.1492 48.3373 17.8984C47.8958 17.4367 47.2912 17.166 46.6528 17.1442C46.0143 17.1225 45.3927 17.3514 44.9207 17.782ZM31.0604 14.7925C33.5851 14.7808 36.0844 15.2965 38.3982 16.3066C38.9852 16.5641 39.6503 16.5778 40.2474 16.3448C40.8444 16.1118 41.3244 15.6512 41.5819 15.0643C41.8393 14.4773 41.853 13.8122 41.62 13.2151C41.387 12.6181 40.9264 12.1381 40.3395 11.8806C37.4164 10.5914 34.2552 9.93009 31.0604 9.93943C19.4131 9.93943 9.97878 18.2867 9.97878 28.5363C10.3995 34.619 9.75575 40.7284 8.07638 46.5897C7.95595 46.8828 7.89457 47.1968 7.89577 47.5136C7.89697 47.8305 7.96071 48.144 8.08335 48.4362C8.206 48.7284 8.38512 48.9934 8.61044 49.2162C8.83577 49.439 9.10287 49.6151 9.39641 49.7345C9.6871 49.8725 10.0066 49.9391 10.3282 49.9286C10.8067 49.9299 11.2751 49.7908 11.6753 49.5286C12.0756 49.2663 12.3901 48.8925 12.58 48.4533C14.5294 42.0052 15.2923 35.2569 14.8318 28.5363C14.8318 20.9656 22.1308 14.7925 31.0604 14.7925Z" fill="white"/>
<path d="M52.8012 8.34758C46.854 2.94225 39.096 -0.0362703 31.0595 0.000333408C26.0866 -0.0088079 21.176 1.10605 16.6945 3.26158C16.3847 3.39347 16.106 3.5889 15.8764 3.83524C15.6468 4.08158 15.4715 4.37334 15.3617 4.69168C15.2519 5.01001 15.2102 5.34784 15.2391 5.68332C15.2681 6.01881 15.3671 6.34448 15.5298 6.63931C15.8142 7.21989 16.3169 7.66424 16.9281 7.87522C17.5392 8.08621 18.209 8.04665 18.791 7.76522C22.6136 5.89563 26.8045 4.90094 31.0595 4.85338C45.2304 4.85338 57.1884 15.6854 57.1884 28.5363C57.1985 29.1782 57.4607 29.7904 57.9183 30.2408C58.3759 30.6911 58.9923 30.9435 59.6343 30.9434C59.9569 30.9538 60.2783 30.8992 60.5793 30.7829C60.8804 30.6666 61.155 30.491 61.3868 30.2664C61.6186 30.0418 61.8029 29.773 61.9287 29.4757C62.0545 29.1785 62.1192 28.859 62.1191 28.5363C62.0771 24.7044 61.2252 20.9248 59.6193 17.4454C58.0134 13.966 55.6899 10.8656 52.8012 8.34758ZM8.38607 12.6183C7.85136 12.2671 7.20179 12.1357 6.57262 12.2514C5.94344 12.3671 5.38313 12.721 5.00835 13.2395C1.85089 17.7103 0.106337 23.0251 1.9438e-08 28.4975C-8.08664e-05 29.1395 0.252279 29.7558 0.702618 30.2134C1.15296 30.671 1.76516 30.9332 2.40711 30.9434C2.72322 30.9434 3.03623 30.8811 3.32828 30.7602C3.62032 30.6392 3.88568 30.4619 4.1092 30.2384C4.33272 30.0148 4.51003 29.7495 4.631 29.4574C4.75197 29.1654 4.81423 28.8524 4.81423 28.5363C4.91105 24.0282 6.3731 19.6556 9.00726 15.996C9.19106 15.7344 9.32089 15.4388 9.38919 15.1264C9.45749 14.8141 9.46288 14.4913 9.40505 14.1769C9.34722 13.8624 9.22733 13.5626 9.05238 13.295C8.87742 13.0274 8.65092 12.7974 8.38607 12.6183ZM31.0595 19.8784C29.4981 19.7742 27.9322 19.9965 26.4615 20.5313C24.9909 21.0661 23.6479 21.9015 22.5182 22.9844C22.288 23.2054 22.1049 23.4706 21.9798 23.7642C21.8547 24.0578 21.7902 24.3736 21.7902 24.6927C21.7902 25.0118 21.8547 25.3276 21.9798 25.6211C22.1049 25.9147 22.288 26.1799 22.5182 26.4009C22.7419 26.6263 23.008 26.8052 23.3012 26.9273C23.5944 27.0493 23.9088 27.1122 24.2264 27.1122C24.544 27.1122 24.8585 27.0493 25.1516 26.9273C25.4448 26.8052 25.711 26.6263 25.9347 26.4009C27.3574 25.1929 29.1983 24.5933 31.0595 24.7315C32.4893 24.6518 33.9035 25.0623 35.0683 25.8954C36.2332 26.7284 37.0788 27.9339 37.4656 29.3128C38.7468 32.9234 37.4656 48.4532 35.3302 54.1604C35.118 54.7681 35.1538 55.4349 35.43 56.0164C35.7062 56.5978 36.2004 57.0469 36.8055 57.2663C37.0761 57.3031 37.3503 57.3031 37.6209 57.2663C38.1254 57.2689 38.618 57.1129 39.029 56.8203C39.44 56.5276 39.7487 56.1133 39.9115 55.6357C41.3224 51.0591 42.2591 46.3495 42.7069 41.5813C43.2977 37.018 43.1403 32.3889 42.241 27.8763C41.54 25.4848 40.0576 23.3973 38.0306 21.9475C36.0037 20.4976 33.5492 19.7691 31.0595 19.8784ZM22.0523 31.254C21.4203 31.3037 20.8335 31.6006 20.4191 32.0804C20.0048 32.5601 19.7964 33.1839 19.8393 33.8164C20.1232 39.9845 19.0772 46.1415 16.7721 51.8697C16.5981 52.1347 16.4782 52.4313 16.4191 52.7427C16.3601 53.0541 16.3631 53.3741 16.428 53.6844C16.493 53.9946 16.6185 54.2889 16.7975 54.5505C16.9765 54.8121 17.2053 55.0358 17.471 55.2086C17.8574 55.4818 18.3178 55.6307 18.791 55.6357C19.1957 55.6362 19.5937 55.5329 19.9471 55.3358C20.3006 55.1387 20.5976 54.8543 20.8099 54.5098C23.7347 47.8829 25.0645 40.6623 24.6923 33.4282C24.6632 33.1115 24.5716 32.8037 24.4228 32.5227C24.274 32.2416 24.071 31.9928 23.8256 31.7907C23.5801 31.5885 23.297 31.437 22.9926 31.3449C22.6882 31.2528 22.3686 31.2219 22.0523 31.254Z" fill="white"/>
<path d="M30.6715 28.6139C30.034 28.7188 29.4639 29.0716 29.0857 29.5953C28.7074 30.119 28.5517 30.7711 28.6526 31.4093C29.1417 39.2327 28.1134 47.0768 25.6243 54.5098C25.3428 55.0918 25.3033 55.7616 25.5143 56.3727C25.7253 56.9839 26.1696 57.4866 26.7502 57.771C27.3281 58.0404 27.9884 58.0734 28.5903 57.8631C29.1922 57.6528 29.6882 57.2158 29.9726 56.6451C32.9146 48.2936 34.104 39.4255 33.4668 30.5939C33.4152 30.2795 33.3016 29.9784 33.1327 29.7082C32.9638 29.438 32.7429 29.204 32.4829 29.0198C32.2228 28.8356 31.9288 28.7049 31.6179 28.6352C31.3069 28.5655 30.9852 28.5583 30.6715 28.6139Z" fill="white"/>
</svg>
