<svg width="24" height="24" viewBox="0 0 24 24" fill="none" xmlns="http://www.w3.org/2000/svg">
<path d="M24 12C24 13.625 23.6823 15.1771 23.0469 16.6562C22.4115 18.1354 21.5573 19.4115 20.4844 20.4844C19.4115 21.5573 18.1354 22.4115 16.6563 23.0469C15.1771 23.6823 13.625 24 12 24C10.2083 24 8.50521 23.6224 6.89062 22.8672C5.27605 22.112 3.90105 21.0469 2.76562 19.6719C2.69269 19.5677 2.65882 19.4505 2.66402 19.3203C2.66935 19.1901 2.71362 19.0833 2.79682 19L4.93744 16.8438C5.04157 16.75 5.17178 16.7031 5.32806 16.7031C5.49473 16.724 5.61452 16.7865 5.68744 16.8906C6.44785 17.8802 7.38015 18.6458 8.48432 19.1875C9.58852 19.7292 10.7604 20 12 20C13.0833 20 14.1172 19.7891 15.1016 19.3672C16.0859 18.9453 16.9375 18.375 17.6562 17.6562C18.375 16.9375 18.9453 16.0859 19.3672 15.1016C19.7891 14.1172 20 13.0833 20 12C20 10.9167 19.7891 9.88281 19.3672 8.89844C18.9453 7.91406 18.375 7.0625 17.6562 6.34375C16.9375 5.625 16.0859 5.05469 15.1016 4.63281C14.1172 4.21094 13.0833 4 12 4C10.9792 4 9.99999 4.1849 9.0625 4.55469C8.12499 4.92448 7.29166 5.45313 6.5625 6.14062L8.70312 8.29688C9.02604 8.60938 9.09896 8.96875 8.92188 9.375C8.74479 9.79167 8.43749 10 8 10H1C0.729167 10 0.494791 9.90104 0.296874 9.70312C0.098958 9.50521 0 9.27083 0 9V2C0 1.5625 0.208333 1.25521 0.625 1.07813C1.03125 0.901042 1.39063 0.973958 1.70312 1.29687L3.73438 3.3125C4.84895 2.26042 6.12239 1.44531 7.55468 0.867188C8.98697 0.289063 10.4687 0 12 0C13.625 0 15.1771 0.317708 16.6563 0.953124C18.1354 1.58854 19.4115 2.44271 20.4844 3.51563C21.5573 4.58854 22.4115 5.86458 23.0469 7.34375C23.6823 8.82292 24 10.375 24 12ZM14 7.5V14.5C14 14.6458 13.9531 14.7656 13.8594 14.8594C13.7656 14.9531 13.6458 15 13.5 15H8.5C8.35416 15 8.23437 14.9531 8.14062 14.8594C8.04687 14.7656 8 14.6458 8 14.5V13.5C8 13.3542 8.04687 13.2344 8.1406 13.1406C8.23436 13.0469 8.35416 13 8.5 13H12V7.5C12 7.35417 12.0469 7.23438 12.1406 7.14063C12.2344 7.04688 12.3542 7 12.5 7H13.5C13.6458 7 13.7656 7.04687 13.8594 7.14062C13.9531 7.23437 14 7.35417 14 7.5Z" fill="white"/>
</svg>
