<svg width="30" height="30" viewBox="0 0 30 30" fill="none" xmlns="http://www.w3.org/2000/svg">
<path d="M0 24.39C0 25.95 0.55 27.27 1.65 28.35C2.75 29.43 4.08 29.98 5.64 30H24.39C25.93 30 27.25 29.45 28.35 28.35C29.45 27.25 30 25.93 30 24.39V5.64C30 4.08 29.45 2.75 28.35 1.65C27.25 0.55 25.93 0 24.39 0H5.64C4.08 0 2.75 0.55 1.65 1.65C0.55 2.75 0 4.08 0 5.64V10.32L3.75 7.98V5.64C3.75 5.12 3.93 4.68 4.29 4.32C4.65 3.96 5.1 3.77 5.64 3.75H24.39C24.89 3.75 25.33 3.94 25.71 4.32C26.09 4.7 26.27 5.14 26.25 5.64V24.39C26.25 24.91 26.07 25.35 25.71 25.71C25.35 26.07 24.91 26.25 24.39 26.25H5.64C5.12 26.25 4.67 26.07 4.29 25.71C3.91 25.35 3.73 24.91 3.75 24.39V22.05L0 19.71L0 24.39ZM0 15L7.5 20.64V16.89H15V13.14H7.5V9.39L0 15Z" fill="white"/>
</svg>
