<svg width="23" height="24" viewBox="0 0 23 24" fill="none" xmlns="http://www.w3.org/2000/svg">
<path d="M6.8 4.8H15.6C16.04 4.8 16.4 4.44 16.4 4V2.4C16.4 1.08 15.32 0 14 0H8.4C7.08 0 6 1.08 6 2.4V4C6 4.44 6.36 4.8 6.8 4.8Z" fill="white"/>
<path d="M20 2H19.2C18.96 2 18.8 2.16 18.8 2.4V4C18.8 5.76 17.36 7.2 15.6 7.2H6.8C5.04 7.2 3.6 5.76 3.6 4V2.4C3.6 2.16 3.44 2 3.2 2H2.4C1.08 2 0 3.08 0 4.4V21.6C0 22.92 1.08 24 2.4 24H20C21.32 24 22.4 22.92 22.4 21.6V4.4C22.4 3.08 21.32 2 20 2ZM8.4 18.4C8.4 18.84 8.04 19.2 7.6 19.2H6.8C6.36 19.2 6 18.84 6 18.4V14.4C6 13.96 6.36 13.6 6.8 13.6H7.6C8.04 13.6 8.4 13.96 8.4 14.4V18.4ZM12.4 18.4C12.4 18.84 12.04 19.2 11.6 19.2H10.8C10.36 19.2 10 18.84 10 18.4V10.8C10 10.36 10.36 10 10.8 10H11.6C12.04 10 12.4 10.36 12.4 10.8V18.4ZM16.4 18.4C16.4 18.84 16.04 19.2 15.6 19.2H14.8C14.36 19.2 14 18.84 14 18.4V12.4C14 11.96 14.36 11.6 14.8 11.6H15.6C16.04 11.6 16.4 11.96 16.4 12.4V18.4Z" fill="white"/>
</svg>
