<svg width="40" height="41" viewBox="0 0 40 41" fill="none" xmlns="http://www.w3.org/2000/svg">
<rect y="0.5" width="40" height="40" rx="20" fill="#F8F8F8"/>
<path d="M14.9376 19.06L15.9558 18L14.9376 16.94L15.9558 15.88L17.9923 18L15.9558 20.12L14.9376 19.06ZM12.2286 17.5C12.2574 17.5 12.2767 17.51 12.3055 17.51C12.8783 16.0303 13.863 14.7626 15.1331 13.8698C16.4032 12.9771 17.9007 12.5001 19.4332 12.5C21.537 12.5 23.4294 13.38 24.8223 14.8C24.9664 14.2 25.2546 13.51 25.6004 12.84C23.8711 11.3259 21.6833 10.4971 19.4236 10.5C14.7358 10.5 10.8357 14.01 10 18.64C10.5379 17.94 11.3545 17.5 12.2286 17.5ZM28.0788 19C27.6753 19 27.2911 18.91 26.9356 18.78C27.0509 19.33 27.1182 19.91 27.1182 20.5C27.1182 24.92 23.6792 28.5 19.4332 28.5C16.2056 28.5 13.4486 26.43 12.3055 23.49C12.2767 23.49 12.2574 23.5 12.2286 23.5C11.7291 23.5 11.2296 23.36 10.7877 23.1C10.4803 22.92 10.2209 22.68 10 22.4C10.8549 27.01 14.7358 30.5 19.414 30.5C24.7358 30.5 29.0394 26.02 29.0394 20.5C29.0394 19.95 28.9817 19.41 28.9049 18.88C28.6354 18.9555 28.3579 18.9959 28.0788 19ZM28.0788 11.5C28.0788 11.5 26.1575 14.4 26.1575 15.5C26.1575 16.6 27.0221 17.5 28.0788 17.5C29.1354 17.5 30 16.6 30 15.5C30 14.4 28.0788 11.5 28.0788 11.5ZM22.9107 15.88L20.8742 18L22.9107 20.12L23.9289 19.06L22.9107 18L23.9289 16.94L22.9107 15.88ZM16.1287 25.5C16.7915 24.31 18.0211 23.5 19.4332 23.5C20.8453 23.5 22.0749 24.31 22.7378 25.5H24.3516C23.5831 23.45 21.6715 22 19.4332 22C18.5975 22 17.8002 22.2 17.0989 22.57L13.6599 20.5C13.6599 19.98 13.4102 19.48 12.9491 19.21C12.2574 18.8 11.3833 19.04 10.9798 19.76C10.586 20.48 10.8165 21.39 11.5082 21.81C11.9693 22.09 12.5168 22.06 12.9395 21.81L15.7925 23.53C15.245 24.06 14.8031 24.74 14.5149 25.5H16.1287Z" fill="#F7AF14"/>
</svg>
